<svg enable-background="new 0 0 528.919 528.918" version="1.1" viewBox="0 0 528.92 528.92" xml:space="preserve" xmlns="http://www.w3.org/2000/svg">
<g fill="#fff">
	<g fill="#fff">
		<path d="m70.846 324.06c3.21 3.926 8.409 3.926 11.619 0l69.162-84.621c3.21-3.926 1.698-7.108-3.372-7.108h-36.723c-5.07 0-8.516-4.061-7.427-9.012 18.883-85.995 95.625-150.56 187.21-150.56 105.71 0 191.71 85.999 191.71 191.71 0 105.71-85.998 191.71-191.71 191.71-12.674 0-22.95 10.275-22.95 22.949s10.276 22.949 22.95 22.949c131.02 0 237.61-106.59 237.61-237.6s-106.59-237.6-237.61-237.6c-116.96 0-214.4 84.967-233.96 196.41-0.878 4.994-5.52 9.067-10.59 9.067h-41.704c-5.071 0-6.579 3.182-3.373 7.108l69.162 84.62z" fill="#fff"/>
	</g>
</g>















</svg>
